<svg width="25" height="20" viewBox="0 0 25 20" fill="none" xmlns="http://www.w3.org/2000/svg">
<path fill-rule="evenodd" clip-rule="evenodd" d="M0.5 10C0.5 9.70536 0.5903 9.42278 0.751035 9.21444C0.91177 9.00609 1.12977 8.88904 1.35709 8.88904H21.5724L16.1779 1.89892C16.0169 1.69031 15.9265 1.40737 15.9265 1.11236C15.9265 0.817343 16.0169 0.53441 16.1779 0.325802C16.3388 0.117194 16.5571 6.95081e-09 16.7847 0C17.0123 -6.95081e-09 17.2306 0.117194 17.3915 0.325802L24.2482 9.21344C24.328 9.31664 24.3913 9.43924 24.4346 9.57421C24.4778 9.70918 24.5 9.85387 24.5 10C24.5 10.1461 24.4778 10.2908 24.4346 10.4258C24.3913 10.5608 24.328 10.6834 24.2482 10.7866L17.3915 19.6742C17.2306 19.8828 17.0123 20 16.7847 20C16.5571 20 16.3388 19.8828 16.1779 19.6742C16.0169 19.4656 15.9265 19.1827 15.9265 18.8876C15.9265 18.5926 16.0169 18.3097 16.1779 18.1011L21.5724 11.111H1.35709C1.12977 11.111 0.91177 10.9939 0.751035 10.7856C0.5903 10.5772 0.5 10.2946 0.5 10Z" fill="white"/>
</svg>
