<svg width="25" height="25" viewBox="0 0 25 25" fill="none" xmlns="http://www.w3.org/2000/svg">
<path d="M9.601 24.147V16.167H7.127V12.5H9.601V10.92C9.601 6.835 11.449 4.942 15.459 4.942C15.86 4.942 16.414 4.984 16.927 5.045C17.3112 5.08454 17.6924 5.14968 18.068 5.24V8.565C17.8509 8.54475 17.633 8.53274 17.415 8.529C17.1707 8.52266 16.9264 8.51966 16.682 8.52C15.975 8.52 15.423 8.616 15.007 8.829C14.7273 8.96931 14.4922 9.18468 14.328 9.451C14.07 9.871 13.954 10.446 13.954 11.203V12.5H17.873L17.487 14.603L17.2 16.167H13.954V24.412C19.896 23.694 24.5 18.635 24.5 12.5C24.5 5.873 19.127 0.5 12.5 0.5C5.873 0.5 0.5 5.873 0.5 12.5C0.5 18.128 4.374 22.85 9.601 24.147Z" fill="#E6E6E6"/>
</svg>
